<svg width="74" height="22" viewBox="0 0 74 22" fill="none" xmlns="http://www.w3.org/2000/svg">
<path d="M6.59883 18.5664C5.91854 18.5692 5.29682 18.4313 4.73366 18.1527C4.18522 17.8592 3.72509 17.4619 3.35325 16.9606C2.99614 16.4445 2.74969 15.8687 2.61392 15.2334L2.92281 14.8328L2.76018 18.3607L0.0759915 18.372L0.00888834 2.42213L3.04801 2.40934L3.08161 10.3954L2.79126 9.93071C3.0244 9.10154 3.47257 8.41196 4.13577 7.86197C4.79897 7.31198 5.63339 7.03487 6.63903 7.03064C7.52637 7.0269 8.31854 7.2528 9.01555 7.70834C9.72734 8.16381 10.2847 8.81958 10.6876 9.67565C11.1053 10.5317 11.3167 11.5734 11.3219 12.8009C11.3269 13.9988 11.1242 15.0275 10.7137 15.887C10.318 16.7464 9.75883 17.4069 9.03611 17.8684C8.32817 18.3298 7.51574 18.5625 6.59883 18.5664ZM5.67951 16.2409C6.4929 16.2375 7.12761 15.9465 7.58364 15.3678C8.0544 14.7742 8.28741 13.9155 8.28268 12.7915C8.27796 11.6675 8.04515 10.8181 7.58427 10.2433C7.12332 9.65368 6.48616 9.36057 5.67277 9.364C5.14037 9.36624 4.6825 9.50866 4.29917 9.79127C3.91584 10.0739 3.61435 10.4745 3.39469 10.993C3.18983 11.5115 3.08889 12.1257 3.09187 12.8355C3.09486 13.5454 3.20096 14.1587 3.41019 14.6754C3.6342 15.1921 3.93902 15.5827 4.32465 15.8473C4.72507 16.1118 5.17669 16.243 5.67951 16.2409Z" fill="white"/>
<path d="M16.9116 0.238299L16.9643 12.7719C16.9665 13.2895 17.0567 13.6515 17.2351 13.8578C17.4134 14.0641 17.7096 14.1663 18.1237 14.1646C18.3751 14.1635 18.5821 14.1479 18.7447 14.1176C18.9071 14.0726 19.1139 14.0125 19.365 13.9375L19.1072 15.9352C18.8565 16.0841 18.539 16.1964 18.1548 16.2719C17.7854 16.3622 17.4159 16.4081 17.0462 16.4097C15.9666 16.4142 15.1743 16.1587 14.6693 15.6433C14.179 15.1129 13.9314 14.271 13.9266 13.1174L13.8995 6.68426L13.8724 0.251085L16.9116 0.238299Z" fill="white"/>
<path d="M26.0781 8.00521C27.202 8.00049 28.1864 8.22558 29.0313 8.68049C29.891 9.13533 30.5593 9.79064 31.0362 10.6464C31.5278 11.5021 31.7762 12.5363 31.7813 13.749C31.7863 14.9469 31.5466 15.9831 31.0623 16.8577C30.5926 17.7175 29.9299 18.3784 29.0741 18.8405C28.233 19.3025 27.2506 19.5358 26.1266 19.5406C25.0174 19.5452 24.033 19.3201 23.1733 18.8653C22.3136 18.4104 21.638 17.7552 21.1463 16.8995C20.6694 16.0289 20.4284 14.9947 20.4234 13.7968C20.4183 12.5841 20.6506 11.5479 21.1202 10.6881C21.6046 9.82831 22.2747 9.16738 23.1306 8.70531C23.9864 8.24325 24.9689 8.00988 26.0781 8.00521ZM26.0876 10.2679C25.5256 10.2703 25.0455 10.4054 24.6473 10.6733C24.2639 10.9263 23.9697 11.3121 23.7649 11.8306C23.56 12.349 23.4592 13.0002 23.4625 13.784C23.4658 14.5678 23.5721 15.2181 23.7813 15.7348C23.9905 16.2516 24.2879 16.6422 24.6736 16.9068C25.0739 17.1565 25.5551 17.2802 26.1171 17.2779C26.6643 17.2756 27.1296 17.1479 27.513 16.8949C27.9112 16.627 28.2127 16.2338 28.4176 15.7153C28.6225 15.1968 28.7233 14.5457 28.72 13.7619C28.7167 12.9781 28.6104 12.3278 28.4012 11.811C28.192 11.2943 27.8872 10.9111 27.4868 10.6613C27.1012 10.3968 26.6348 10.2656 26.0876 10.2679Z" fill="white"/>
<path d="M44.4296 3.39726L44.7937 5.56974C44.7346 5.56998 44.668 5.57026 44.5941 5.57058C44.5349 5.55604 44.4683 5.54892 44.3943 5.54923C43.7288 5.55203 43.2193 5.70946 42.8656 6.02152C42.5267 6.31873 42.3584 6.73354 42.3606 7.26594L41.1162 6.76095C41.1137 6.16939 41.2298 5.6217 41.4643 5.11788C41.6987 4.59928 42.0445 4.18373 42.5017 3.87123C42.9736 3.55867 43.5349 3.40103 44.1856 3.39829C44.2152 3.39816 44.2522 3.39801 44.2965 3.39782C44.3409 3.39763 44.3853 3.39745 44.4296 3.39726ZM40.8406 15.0588C42.0385 15.0538 42.9639 15.3087 43.6168 15.8236C44.2696 16.3385 44.5981 17.0617 44.602 17.9934C44.6055 18.8364 44.3645 19.5473 43.8789 20.1261C43.3933 20.7197 42.7075 21.1663 41.8214 21.4658C40.9501 21.7653 39.9377 21.9174 38.7842 21.9223C36.8764 21.9303 35.4777 21.67 34.5882 21.1413C33.7134 20.6126 33.2742 19.9193 33.2706 19.0616C33.268 18.4552 33.4951 17.944 33.9518 17.528C34.4233 17.1119 35.1988 16.8794 36.2782 16.8305L36.1687 17.1859C35.3992 17.0561 34.8066 16.8071 34.3909 16.4392C33.99 16.0563 33.7881 15.5322 33.7853 14.8667C33.7825 14.1864 34.0389 13.6307 34.5547 13.1997C35.0853 12.7537 35.8015 12.4919 36.7033 12.4142L38.0369 13.0297L37.7263 13.031C37.0906 13.0781 36.6401 13.2131 36.3748 13.436C36.1243 13.6441 35.9996 13.8813 36.0007 14.1475C36.002 14.458 36.1213 14.6942 36.3586 14.8558C36.6106 15.0027 36.9659 15.0751 37.4243 15.0732L40.8406 15.0588ZM38.7976 19.8369C39.5666 19.8337 40.1949 19.7645 40.6823 19.6293C41.1846 19.4941 41.5536 19.3225 41.7894 19.1145C42.0399 18.9064 42.1646 18.6766 42.1636 18.4252C42.1624 18.1442 42.0505 17.9154 41.8279 17.7389C41.6054 17.5772 41.2058 17.4975 40.629 17.4999L36.88 17.5157C36.5251 17.5172 36.2297 17.6072 35.9938 17.7856C35.7727 17.964 35.6628 18.2085 35.6641 18.5191C35.6659 18.9332 35.9408 19.2574 36.489 19.4917C37.052 19.726 37.8215 19.841 38.7976 19.8369ZM38.7609 5.83914C39.7961 5.83478 40.6915 5.9863 41.447 6.2937C42.2173 6.58624 42.8033 7.01266 43.2049 7.57296C43.6214 8.13319 43.8312 8.80522 43.8345 9.58903C43.8378 10.3581 43.6335 11.0244 43.2218 11.5881C42.8249 12.1518 42.2426 12.5905 41.4748 12.9043C40.7218 13.2033 39.8277 13.3549 38.7925 13.3593C37.1509 13.3662 35.8925 13.0387 35.0171 12.3769C34.1417 11.7003 33.7016 10.7852 33.6968 9.63168C33.6935 8.84787 33.8977 8.1741 34.3094 7.61038C34.7211 7.04666 35.3035 6.61533 36.0565 6.31638C36.8094 6.00263 37.7109 5.84356 38.7609 5.83914ZM38.7689 7.74691C38.1773 7.7494 37.69 7.91413 37.3069 8.2411C36.9237 8.56807 36.7334 9.01994 36.7358 9.59671C36.7382 10.1735 36.9324 10.6311 37.3183 10.9697C37.7042 11.2934 38.1929 11.454 38.7845 11.4515C39.376 11.449 39.856 11.2843 40.2244 10.9574C40.6074 10.6157 40.7978 10.1564 40.7953 9.57963C40.7929 9.00287 40.5988 8.55261 40.2129 8.22887C39.8418 7.90507 39.3605 7.74442 38.7689 7.74691Z" fill="white"/>
<path d="M46.7463 19.232L46.6847 4.59096L53.0957 4.56399C54.8704 4.55652 56.1806 4.89855 57.0265 5.59008C57.8724 6.28162 58.298 7.26331 58.3034 8.53515C58.3067 9.31896 58.073 10.015 57.6023 10.6234C57.1316 11.2317 56.4382 11.6191 55.5219 11.7857L55.522 11.8079C56.5431 11.9515 57.3285 12.3327 57.8783 12.9515C58.4281 13.5703 58.7048 14.3086 58.7084 15.1664C58.7137 16.4234 58.2594 17.4088 57.3455 18.1226C56.4463 18.8362 55.1242 19.1967 53.3791 19.2041L46.7463 19.232ZM49.7092 16.9124L53.1032 16.8981C53.9314 16.8946 54.5444 16.722 54.9423 16.3802C55.3402 16.0383 55.5378 15.5642 55.5353 14.9579C55.5327 14.3368 55.331 13.8644 54.9303 13.5407C54.5297 13.217 53.9152 13.0569 53.0871 13.0604L49.693 13.0747L49.7092 16.9124ZM49.6831 10.7232L52.7222 10.7105C54.3342 10.7037 55.1376 10.0718 55.1323 8.8147C55.127 7.55764 54.3184 6.9325 52.7064 6.93928L49.6673 6.95207L49.6831 10.7232Z" fill="white"/>
<path d="M61.6507 18.1129L61.5891 3.47189L68.0001 3.44492C69.7748 3.43746 71.0851 3.77949 71.931 4.47102C72.7769 5.16255 73.2025 6.14424 73.2078 7.41609C73.2111 8.1999 72.9774 8.89597 72.5067 9.50431C72.036 10.1126 71.3426 10.5001 70.4264 10.6666L70.4265 10.6888C71.4475 10.8324 72.2329 11.2136 72.7828 11.8324C73.3325 12.4513 73.6093 13.1896 73.6129 14.0473C73.6182 15.3044 73.1638 16.2898 72.2499 17.0035C71.3508 17.7172 70.0287 18.0777 68.2836 18.085L61.6507 18.1129ZM64.6136 15.7933L68.0077 15.7791C68.8358 15.7756 69.4489 15.6029 69.8467 15.2611C70.2446 14.9193 70.4423 14.4452 70.4397 13.8388C70.4371 13.2177 70.2355 12.7453 69.8348 12.4216C69.4341 12.0979 68.8197 11.9379 67.9915 11.9413L64.5975 11.9556L64.6136 15.7933ZM64.5876 9.60418L67.6267 9.59139C69.2387 9.58461 70.042 8.95269 70.0367 7.69563C70.0315 6.43858 69.2228 5.81344 67.6108 5.82022L64.5717 5.83301L64.5876 9.60418Z" fill="white"/>
</svg>
