<svg width="145" height="43" viewBox="0 0 145 43" fill="none" xmlns="http://www.w3.org/2000/svg">
<path d="M123.784 19.3987L124.364 19.5545C126.375 20.12 127.662 21.3923 128.028 23.4767C128.394 25.561 128.028 27.5293 126.335 29.0373C125.346 29.8877 124.133 30.4373 122.841 30.6213C122.181 30.7296 121.515 30.8034 120.847 30.8425C119.499 30.944 118.15 31.0346 116.802 31.1035C116.318 31.1334 115.833 31.1189 115.352 31.06C114.33 30.9295 113.833 30.4473 113.616 29.4324C113.542 29.0945 113.494 28.7516 113.471 28.4065C113.159 23.7111 112.854 19.018 112.557 14.3274C112.534 13.8372 112.555 13.3459 112.619 12.8593C112.657 12.4373 112.83 12.0387 113.113 11.7232C113.396 11.4077 113.773 11.192 114.188 11.1085C114.498 11.0126 114.816 10.9482 115.138 10.9164C116.922 10.8076 118.705 10.688 120.489 10.63C121.443 10.6076 122.39 10.8074 123.254 11.2136C125.179 12.0981 126.154 13.9649 125.922 16.2595C125.847 16.8727 125.632 17.4607 125.296 17.9789C124.959 18.497 124.509 18.9317 123.979 19.25C123.936 19.2863 123.878 19.3334 123.784 19.3987ZM117.792 23.0852L118.024 26.6485C118.034 26.752 118.084 26.8476 118.163 26.9151C118.242 26.9827 118.344 27.0171 118.448 27.0109C119.071 26.9711 120.26 26.8877 120.913 26.8224C121.256 26.7783 121.592 26.6906 121.913 26.5615C122.357 26.3941 122.734 26.0841 122.983 25.68C123.232 25.276 123.34 24.8007 123.291 24.3285C123.255 24.0294 123.155 23.7416 122.998 23.4845C122.841 23.2274 122.63 23.0072 122.381 22.8387C122.038 22.6091 121.637 22.4832 121.224 22.4762C120.394 22.4762 118.872 22.5813 118.158 22.6466C118.051 22.6567 117.953 22.7084 117.884 22.7906C117.816 22.8727 117.783 22.9786 117.792 23.0852V23.0852ZM117.259 15.2481L117.451 18.1263C117.46 18.268 117.525 18.4003 117.632 18.4941C117.739 18.5879 117.878 18.6355 118.02 18.6266C118.729 18.5923 119.435 18.5124 120.133 18.3873C120.577 18.292 120.968 18.034 121.23 17.6643C121.493 17.2945 121.607 16.8399 121.551 16.39C121.537 15.9418 121.357 15.5147 121.046 15.1913C120.735 14.868 120.316 14.6712 119.869 14.6392C119.165 14.6148 118.461 14.6281 117.759 14.679C117.617 14.6884 117.485 14.7535 117.391 14.8602C117.297 14.9669 117.25 15.1064 117.259 15.2481V15.2481Z" fill="#1E0028"/>
<path d="M141.524 23.5637L142.067 23.8174C143.952 24.7019 145 26.1772 145 28.276C145 30.3748 144.297 32.2634 142.376 33.4669C141.257 34.1393 139.968 34.4765 138.664 34.4384C137.994 34.4305 137.325 34.3882 136.659 34.3115C135.313 34.181 133.969 34.0348 132.628 33.8729C132.152 33.8182 131.681 33.7211 131.222 33.5829C130.239 33.2748 129.83 32.7165 129.79 31.6798C129.778 31.3338 129.79 30.9874 129.826 30.6431C130.326 25.967 130.835 21.2921 131.352 16.6183C131.413 16.1264 131.518 15.6411 131.668 15.1684C131.778 14.7604 132.017 14.3989 132.35 14.1377C132.682 13.8765 133.09 13.7294 133.513 13.7184C133.836 13.6808 134.163 13.6759 134.488 13.7039C136.26 13.9033 138.04 14.0918 139.805 14.3419C140.75 14.4832 141.649 14.8431 142.43 15.3931C144.173 16.5966 144.811 18.6012 144.188 20.8305C144.008 21.4215 143.696 21.9638 143.275 22.416C142.854 22.8683 142.336 23.2186 141.759 23.4404C141.69 23.4585 141.629 23.4948 141.524 23.5637ZM134.999 26.1627L134.611 29.7115C134.605 29.7645 134.61 29.8181 134.625 29.8692C134.64 29.9204 134.665 29.968 134.699 30.0092C134.733 30.0504 134.774 30.0844 134.821 30.1093C134.869 30.1341 134.92 30.1492 134.973 30.1537C135.59 30.2262 136.786 30.3458 137.431 30.393C137.776 30.4099 138.122 30.3831 138.461 30.3132C138.927 30.225 139.352 29.9841 139.667 29.6285C139.982 29.2728 140.169 28.8226 140.201 28.3485C140.223 28.0419 140.177 27.7342 140.067 27.4472C139.957 27.1603 139.784 26.9012 139.563 26.6883C139.26 26.407 138.882 26.2194 138.475 26.1482C137.663 25.9923 136.141 25.8437 135.427 25.7857C135.374 25.7802 135.321 25.7852 135.271 25.8002C135.22 25.8153 135.173 25.8403 135.132 25.8737C135.092 25.907 135.058 25.9482 135.033 25.9947C135.008 26.0412 134.993 26.0921 134.988 26.1446L134.999 26.1627ZM135.822 18.351L135.514 21.2183C135.499 21.3595 135.541 21.5005 135.63 21.6111C135.719 21.7216 135.848 21.7928 135.988 21.8092C136.693 21.8966 137.403 21.939 138.113 21.9361C138.565 21.9185 138.995 21.732 139.317 21.4133C139.639 21.0946 139.83 20.6668 139.853 20.2142C139.92 19.7643 139.816 19.3053 139.561 18.9286C139.306 18.5518 138.918 18.2848 138.475 18.1807C137.785 18.036 137.088 17.9283 136.387 17.8581C136.248 17.8468 136.11 17.8901 136.003 17.9787C135.895 18.0674 135.826 18.1944 135.811 18.3329L135.822 18.351Z" fill="#1E0028"/>
<path d="M51.4304 16.535C56.6721 14.0374 61.3808 18.1843 61.4895 22.2768C61.649 24.4771 61.7759 26.6775 61.91 28.8778C61.9535 29.6027 62.2037 32.2054 59.7786 32.4447C57.4333 32.4447 57.3137 29.9689 57.2412 29.2983C57.0853 27.5148 57.0092 25.7277 56.8787 23.9443C56.8433 23.4248 56.7694 22.9086 56.6576 22.4001C56.2951 20.845 55.2692 20.2251 53.7069 20.5369C52.6665 20.7544 52.0503 21.4866 51.9343 22.7118C51.8836 23.2431 51.8727 23.7775 51.9017 24.3104C51.9923 26.0358 52.1301 27.7613 52.2098 29.4904C52.2352 30.0849 52.5723 32.8978 49.9914 33.0573C47.6606 33.0102 47.6062 30.3676 47.5699 29.8275C47.2074 24.4989 46.8123 18.0067 46.5006 12.6745C46.4643 12.0329 46.3157 9.29243 48.6067 9.15105C50.8976 9.00968 51.0716 11.6885 51.1441 12.3047C51.2818 13.7003 51.4232 16.3827 51.4304 16.535Z" fill="#1E0028"/>
<path d="M68.6378 23.7667C68.6033 24.3264 68.7389 24.8836 69.0268 25.3649C69.3147 25.8462 69.7414 26.2292 70.2509 26.4636C71.3335 26.9757 72.5657 27.0749 73.7163 26.7427C74.5464 26.5325 75.3584 26.2533 76.1776 25.9923C76.441 25.8978 76.723 25.8666 77.0007 25.9013C77.2784 25.9359 77.5441 26.0354 77.7762 26.1917C78.1334 26.439 78.3899 26.8063 78.499 27.2268C78.6081 27.6472 78.5626 28.0929 78.3707 28.4827C78.0971 29.0654 77.6485 29.5482 77.0875 29.8637C75.8476 30.6317 74.4273 31.0593 72.9696 31.1035C71.2151 31.1832 69.4933 30.9983 67.9563 30.0849C65.1217 28.4065 63.7877 25.8655 63.911 22.5958C64.0052 20.0584 64.9151 17.8834 66.9087 16.2087C68.9604 14.5014 71.2985 14.1172 73.8468 14.7225C77.1092 15.4983 79.9403 18.9383 79.353 23.1649C79.2153 24.1654 78.773 24.5786 77.7798 24.6149C77.4556 24.6276 77.1309 24.6167 76.8083 24.5823L69.0474 23.8029L68.6378 23.7667ZM69.2069 20.729L74.6443 21.2764C74.6827 21.2804 74.7215 21.2764 74.7583 21.2646C74.7951 21.2529 74.829 21.2336 74.858 21.208C74.887 21.1825 74.9103 21.1512 74.9266 21.1162C74.9428 21.0811 74.9516 21.0431 74.9524 21.0045C74.9705 19.801 73.8468 18.5504 72.4512 18.2894C71.7207 18.1738 70.9728 18.3179 70.3377 18.6968C69.7025 19.0756 69.2203 19.6652 68.9749 20.3629C68.9617 20.4022 68.9574 20.4441 68.9624 20.4853C68.9674 20.5265 68.9815 20.5661 69.0037 20.6012C69.026 20.6363 69.0557 20.6659 69.0909 20.688C69.126 20.7102 69.1657 20.7241 69.2069 20.729V20.729Z" fill="#1E0028"/>
<path d="M102.969 14.3927C107.711 14.7987 110.603 17.9052 110.719 22.1717C110.774 24.1618 110.4 26.0648 109.269 27.7359C107.374 30.5126 104.514 31.5167 101.295 30.9766C97.5138 30.3422 94.8423 26.9384 94.9257 22.9438C94.9619 21.2075 95.2882 19.54 96.2198 18.0611C97.9307 15.4004 100.392 14.2078 102.969 14.3927ZM99.7758 22.4762C99.6876 23.2752 99.7946 24.0838 100.088 24.8324C100.27 25.333 100.589 25.7722 101.01 26.0993C101.43 26.4265 101.934 26.6283 102.464 26.6817C102.995 26.7351 103.529 26.6378 104.006 26.4011C104.483 26.1644 104.884 25.7978 105.162 25.3435C105.525 24.7991 105.759 24.1793 105.847 23.531C106.047 22.2696 105.985 21.0516 105.202 19.9714C104.968 19.6345 104.661 19.3543 104.304 19.1511C103.947 18.948 103.549 18.8271 103.14 18.7972C102.73 18.7673 102.319 18.8293 101.937 18.9785C101.554 19.1277 101.21 19.3604 100.929 19.6596C100.221 20.431 99.8119 21.4299 99.7758 22.4762V22.4762Z" fill="#1E0028"/>
<path d="M81.3721 23.1359C81.3721 20.5006 81.354 17.8653 81.3721 15.2337C81.3721 14.534 81.1981 11.7501 83.7138 11.7501C85.9939 11.7501 85.9758 14.3383 85.9794 14.9292C86.0011 20.4221 86.0011 25.9126 85.9794 31.4007C85.9794 31.9698 85.9794 34.4819 83.6739 34.5616C81.2163 34.4311 81.383 31.8067 81.3721 31.1107C81.354 28.4537 81.3721 25.793 81.3721 23.1359Z" fill="#1E0028"/>
<path d="M88.2087 21.2727C88.1217 18.6411 88.013 16.0057 87.9622 13.3741C87.9622 12.6745 87.6722 9.89779 90.1879 9.81442C92.4643 9.7383 92.5332 12.3265 92.555 12.9173C92.758 18.4054 92.9392 23.8923 93.0987 29.378C93.1168 29.9507 93.2183 32.4592 90.902 32.615C88.4407 32.5679 88.5204 29.9399 88.4878 29.2403C88.3646 26.5868 88.2957 23.9262 88.2087 21.2727Z" fill="#1E0028"/>
<path d="M39.5154 22.15C38.8957 21.148 38.054 20.302 37.0552 19.6773C36.0565 19.0525 34.9275 18.6657 33.7554 18.5468C33.4944 18.5214 33.2298 18.5069 32.9725 18.5069H32.8782C33.3196 17.9402 33.6269 17.2808 33.7769 16.5783C33.927 15.8758 33.916 15.1485 33.7447 14.4508C33.5735 13.7532 33.2464 13.1034 32.7881 12.5503C32.3297 11.9972 31.752 11.555 31.0984 11.2571C30.4384 9.59201 29.3965 8.10519 28.0566 6.91646C26.7168 5.72773 25.1165 4.87033 23.3846 4.41332C23.5125 3.9012 23.8062 3.44577 24.2199 3.11795C24.6336 2.79013 25.1441 2.60833 25.6719 2.60087C25.9804 2.60128 26.2796 2.49505 26.5187 2.30017C26.7578 2.10529 26.9223 1.83374 26.9841 1.53152C27.0163 1.34394 27.0071 1.15161 26.9573 0.967926C26.9075 0.784244 26.8183 0.613637 26.6957 0.468001C26.5732 0.322364 26.4204 0.205204 26.248 0.124688C26.0755 0.0441719 25.8876 0.00223891 25.6973 0.00181253C24.5397 0.00432929 23.4187 0.407048 22.5242 1.1417C21.6296 1.87635 21.0167 2.89773 20.7892 4.0327C20.6696 4.0327 20.5536 4.0327 20.4267 4.0327C20.2998 4.0327 20.0932 4.0327 19.9264 4.0327C19.6993 2.89956 19.088 1.87957 18.1957 1.14513C17.3034 0.41069 16.1849 0.00683196 15.0292 0.00181253C14.8518 -0.00753392 14.6744 0.019337 14.5077 0.0807879C14.341 0.142239 14.1886 0.236983 14.0597 0.359247C13.9308 0.481511 13.8282 0.628735 13.7581 0.791948C13.6879 0.955161 13.6518 1.13094 13.6518 1.30859C13.6518 1.48623 13.6879 1.66202 13.7581 1.82523C13.8282 1.98844 13.9308 2.13567 14.0597 2.25793C14.1886 2.3802 14.341 2.47494 14.5077 2.53639C14.6744 2.59784 14.8518 2.62471 15.0292 2.61537C15.5666 2.6162 16.0882 2.79796 16.5097 3.13137C16.9312 3.46477 17.2282 3.93039 17.3528 4.45319C15.8665 4.86255 14.4782 5.56779 13.2711 6.52663C11.7467 7.75626 10.5593 9.35274 9.82023 11.1665C9.07272 11.469 8.4144 11.9566 7.90714 12.5834C7.39987 13.2103 7.06033 13.9558 6.92042 14.75C6.78051 15.5441 6.84483 16.3608 7.10733 17.1233C7.36982 17.8857 7.82188 18.5689 8.42102 19.1087C8.20352 19.0905 7.98603 19.0797 7.76491 19.0797C7.50754 19.0797 7.24293 19.0797 6.98556 19.1195C5.81303 19.2385 4.68351 19.6252 3.68418 20.2499C2.68485 20.8747 1.84244 21.7207 1.22197 22.7227C0.571655 23.7561 0.167997 24.9253 0.0422755 26.1397C-0.0834463 27.3542 0.0721438 28.5813 0.496989 29.726C1.02114 31.1161 1.91936 32.3342 3.09242 33.2458C4.53606 34.3897 6.32535 35.0096 8.16728 35.0038H8.19627C8.68218 36.5334 9.4976 37.9378 10.5851 39.1181C12.8688 41.5722 16.1638 42.8155 20.3723 42.8155C24.5808 42.8155 27.8795 41.5722 30.1595 39.1217C31.3815 37.7885 32.2621 36.1791 32.726 34.4311C34.3628 34.3984 35.9526 33.8775 37.2915 32.9352C38.6303 31.9929 39.6572 30.6722 40.2404 29.1424C40.6618 27.9989 40.8156 26.7741 40.69 25.562C40.5643 24.3498 40.1625 23.1826 39.5154 22.15V22.15ZM8.62401 22.7408C8.0654 24.5369 7.70083 26.3877 7.53654 28.2615C7.41845 29.6235 7.44518 30.9941 7.61629 32.3504C6.59283 32.2469 5.61747 31.8642 4.79668 31.2442C3.97589 30.6241 3.34121 29.7905 2.96192 28.8343C1.77658 25.6154 3.83915 22.0702 7.2538 21.7222C7.8019 21.6611 8.35646 21.6967 8.89226 21.8273C8.79076 22.1137 8.70376 22.4291 8.62401 22.7408ZM31.2506 15.7846V15.8535C31.2506 15.9006 31.2506 15.9441 31.2506 15.9876C31.2429 16.015 31.2368 16.0429 31.2325 16.071L31.1999 16.1834C31.1999 16.2124 31.1999 16.2414 31.1745 16.2704C31.1491 16.2994 31.1491 16.3392 31.1346 16.3719C31.1241 16.4015 31.112 16.4305 31.0984 16.4589L31.0549 16.5495C31.0549 16.5785 31.0259 16.6075 31.0078 16.6365C30.9934 16.6626 30.9776 16.6881 30.9606 16.7126L30.9026 16.8068L30.8591 16.8648L30.783 16.9627V16.9808C30.6274 17.1593 30.4438 17.3111 30.2393 17.4303V17.4303C30.1905 17.4605 30.1396 17.4871 30.087 17.5101V17.5101L29.9275 17.5753C29.8743 17.5967 29.8198 17.6148 29.7644 17.6297V17.6297L29.5868 17.6696C29.4669 17.6894 29.3458 17.7003 29.2243 17.7022H29.1047C28.6118 19.5984 27.5036 21.2774 25.9537 22.4759C24.4039 23.6744 22.5001 24.3247 20.5409 24.3247C18.5817 24.3247 16.6779 23.6744 15.128 22.4759C13.5782 21.2774 12.4699 19.5984 11.977 17.7022C11.8901 17.7076 11.803 17.7076 11.7161 17.7022C11.5324 17.7023 11.3495 17.6779 11.1723 17.6297V17.6297L10.8787 17.5971L10.712 17.5282C10.4348 17.4031 10.1876 17.2202 9.98697 16.9917C9.98289 16.984 9.97657 16.9777 9.96885 16.9736L9.8891 16.8685L9.84923 16.8141C9.82757 16.7816 9.8082 16.7477 9.79123 16.7126L9.74773 16.6401L9.69698 16.5495L9.65348 16.4589L9.61724 16.3719C9.61724 16.3392 9.59186 16.303 9.58099 16.2704C9.5697 16.2419 9.56001 16.2129 9.55199 16.1834C9.55199 16.1471 9.53024 16.1072 9.52299 16.071C9.51522 16.0436 9.50917 16.0158 9.50486 15.9876C9.50486 15.9441 9.50486 15.9006 9.48311 15.8571C9.48133 15.833 9.48133 15.8088 9.48311 15.7846C9.47941 15.7158 9.47941 15.6468 9.48311 15.578V15.578C9.48051 15.1507 9.60684 14.7325 9.8456 14.3782C9.92141 14.2632 10.0089 14.1563 10.1066 14.0592C10.5038 13.6615 11.0416 13.4363 11.6037 13.4321H11.8212C11.861 13.2617 11.9045 13.095 11.9553 12.9318L11.9879 12.8195C12.0423 12.6563 12.0967 12.4932 12.1547 12.3337C12.1622 12.3199 12.1683 12.3053 12.1728 12.2902C12.2308 12.1307 12.3033 11.9785 12.3722 11.8226L12.3939 11.7682C12.47 11.6087 12.5462 11.4492 12.6295 11.2934C12.6518 11.2774 12.6725 11.2591 12.6911 11.239C12.7012 11.1627 12.7262 11.0892 12.7648 11.0226C12.8034 10.9561 12.8547 10.8978 12.9159 10.8511C12.9283 10.843 12.9383 10.8318 12.9449 10.8185C13.0428 10.659 13.1479 10.5031 13.2566 10.3509C13.4699 10.0586 13.6986 9.77789 13.9417 9.50993L13.9744 9.47368C15.487 7.84539 17.5581 6.8474 19.7742 6.67888V6.67888L20.0968 6.66075C20.2128 6.66075 20.3324 6.66075 20.4593 6.66075H20.7602H20.9958C23.2106 6.79762 25.2927 7.76299 26.8283 9.36493C27.0882 9.64046 27.3303 9.93225 27.5532 10.2385L27.5786 10.2748C27.7932 10.5713 27.9905 10.8799 28.1695 11.1991L28.2057 11.2644C28.2879 11.419 28.3676 11.5785 28.445 11.7429C28.4549 11.7603 28.4634 11.7784 28.4703 11.7972C28.5392 11.9459 28.6045 12.0945 28.6625 12.2467C28.6737 12.2715 28.6834 12.2969 28.6915 12.3228C28.7531 12.4823 28.8111 12.6491 28.8654 12.8122L28.8981 12.921C28.9488 13.0913 28.9959 13.2617 29.0358 13.4357H29.1119C29.3947 13.4352 29.6747 13.4906 29.9359 13.5987C30.1972 13.7068 30.4345 13.8654 30.6343 14.0655C30.834 14.2656 30.9923 14.5032 31.0999 14.7646C31.2075 15.026 31.2625 15.3062 31.2615 15.5889C31.2612 15.6543 31.2576 15.7196 31.2506 15.7846V15.7846ZM37.7754 28.2615C37.4024 29.2043 36.7806 30.0283 35.9763 30.6455C35.172 31.2628 34.2153 31.6504 33.2081 31.7668C33.3097 30.6018 33.3097 29.4302 33.2081 28.2652C33.0404 26.3907 32.6759 24.539 32.1206 22.7408C31.9952 22.2495 31.8427 21.7654 31.6639 21.2909C32.0774 21.1785 32.504 21.1212 32.9326 21.1205C33.1066 21.1205 33.277 21.1205 33.4473 21.1459C36.8801 21.4975 38.9463 25.0426 37.7646 28.276L37.7754 28.2615Z" fill="#1E0028"/>
<path d="M16.5263 35.9318C16.525 35.9142 16.5179 35.8975 16.5061 35.8844C16.4943 35.8713 16.4785 35.8625 16.4611 35.8593C13.9744 35.312 11.089 33.6844 10.3966 33.2603C10.3911 33.256 10.3843 33.2537 10.3774 33.2536C10.3704 33.2535 10.3635 33.2556 10.3579 33.2596C10.3522 33.2637 10.348 33.2695 10.3458 33.2761C10.3436 33.2827 10.3437 33.2899 10.3459 33.2965C10.7627 34.848 12.2925 39.1507 17.7661 39.9953C17.7897 40.0003 17.8143 39.9978 17.8365 39.9881C17.8586 39.9784 17.8772 39.962 17.8896 39.9412C17.9019 39.9204 17.9075 39.8963 17.9055 39.8722C17.9035 39.8481 17.8941 39.8253 17.8784 39.8068C17.0882 38.897 16.6786 37.2042 16.5263 35.9318Z" fill="#FFC544"/>
<path d="M16.9033 30.7845C16.9777 30.8039 17.0568 30.794 17.1242 30.757C17.1916 30.7199 17.2423 30.6584 17.2658 30.5851C17.7165 29.2911 18.354 28.0699 19.158 26.9602C19.1637 26.9528 19.1675 26.9441 19.1689 26.9349C19.1704 26.9257 19.1694 26.9163 19.1661 26.9075C19.1628 26.8988 19.1574 26.891 19.1502 26.885C19.1431 26.879 19.1345 26.8749 19.1253 26.8732C16.1476 26.5427 13.4209 25.0497 11.5384 22.719C11.5292 22.7048 11.5166 22.6931 11.5017 22.6851C11.4868 22.677 11.4702 22.6727 11.4532 22.6727C11.4363 22.6727 11.4196 22.677 11.4048 22.6851C11.3899 22.6931 11.3773 22.7048 11.3681 22.719C10.7777 24.0126 10.437 25.406 10.364 26.8261C10.3663 26.9277 10.402 27.0258 10.4655 27.1052C11.0744 27.8592 13.1443 29.8891 16.9033 30.7845Z" fill="#FFC544"/>
<path d="M30.4024 31.2122C26.7485 33.7968 20.9523 33.9309 19.5785 33.9236C19.5275 33.9241 19.4774 33.9364 19.432 33.9597C19.3867 33.983 19.3475 34.0166 19.3175 34.0578C18.9151 34.6051 19.0239 36.2001 19.3465 36.8961C19.3846 36.9863 19.4436 37.0661 19.5186 37.1291C19.5936 37.1922 19.6824 37.2365 19.7778 37.2585C21.9528 37.7769 30.29 36.9214 30.6525 31.3572C30.6683 31.3243 30.6711 31.2867 30.6604 31.2518C30.6496 31.2169 30.6261 31.1874 30.5945 31.1691C30.5629 31.1508 30.5256 31.145 30.49 31.153C30.4544 31.161 30.4231 31.1822 30.4024 31.2122Z" fill="#FFC544"/>
<path d="M30.1341 26.2026C30.2973 26.0213 30.0145 23.8283 29.4563 22.8133C29.4452 22.7976 29.4306 22.7848 29.4136 22.7759C29.3965 22.7671 29.3776 22.7625 29.3584 22.7625C29.3392 22.7625 29.3203 22.7671 29.3033 22.7759C29.2862 22.7848 29.2716 22.7976 29.2605 22.8133C26.4114 26.315 23.2323 25.1405 20.6659 29.4106C20.6616 29.4178 20.6592 29.4259 20.6588 29.4342C20.6585 29.4425 20.6601 29.4508 20.6637 29.4584C20.6673 29.4659 20.6727 29.4724 20.6794 29.4774C20.6861 29.4823 20.6939 29.4855 20.7021 29.4867C23.178 29.6535 27.024 29.4976 30.1341 26.2026Z" fill="#FFC544"/>
<path d="M22.4784 18.6374H22.4132C22.249 18.5917 22.0749 18.5963 21.9133 18.6506C21.7518 18.7048 21.6102 18.8063 21.5069 18.9419C21.3714 19.1172 21.1976 19.2592 20.9987 19.3568C20.7998 19.4545 20.5812 19.5052 20.3597 19.5052C20.1381 19.5052 19.9195 19.4545 19.7206 19.3568C19.5217 19.2592 19.3479 19.1172 19.2124 18.9419C19.1091 18.8063 18.9676 18.7048 18.806 18.6506C18.6444 18.5963 18.4703 18.5917 18.3061 18.6374H18.2445C18.1148 18.6748 17.996 18.743 17.8984 18.8362C17.8007 18.9294 17.727 19.0448 17.6836 19.1726C17.6401 19.3004 17.6282 19.4369 17.6489 19.5703C17.6696 19.7037 17.7222 19.8301 17.8023 19.9388C18.1005 20.3357 18.4869 20.6579 18.9311 20.8798C19.3753 21.1016 19.865 21.2172 20.3615 21.2172C20.858 21.2172 21.3477 21.1016 21.7918 20.8798C22.236 20.6579 22.6224 20.3357 22.9206 19.9388C22.9999 19.8298 23.0518 19.7035 23.072 19.5703C23.0922 19.4371 23.0802 19.301 23.0368 19.1735C22.9935 19.0459 22.9201 18.9307 22.8229 18.8374C22.7258 18.7441 22.6076 18.6755 22.4784 18.6374Z" fill="#1E0028"/>
<path d="M18.6541 15.781C18.7468 15.7813 18.8388 15.7653 18.926 15.7339C19.0285 15.6984 19.1231 15.6431 19.2044 15.5711C19.2856 15.4991 19.3518 15.4117 19.3992 15.3141C19.4467 15.2165 19.4745 15.1105 19.481 15.0022C19.4875 14.8938 19.4725 14.7852 19.4371 14.6827C19.2564 14.1729 18.9222 13.7317 18.4804 13.4196C18.0387 13.1076 17.5112 12.94 16.9703 12.94C16.4295 12.94 15.9019 13.1076 15.4602 13.4196C15.0185 13.7317 14.6843 14.1729 14.5036 14.6827C14.444 14.886 14.4649 15.1045 14.5618 15.293C14.6588 15.4815 14.8244 15.6255 15.0245 15.6953C15.2246 15.7651 15.4439 15.7553 15.637 15.6681C15.8302 15.5808 15.9824 15.4227 16.0623 15.2264C16.1299 15.0403 16.2531 14.8796 16.4153 14.766C16.5774 14.6525 16.7706 14.5915 16.9685 14.5915C17.1665 14.5915 17.3596 14.6525 17.5217 14.766C17.6839 14.8796 17.8071 15.0403 17.8747 15.2264C17.9311 15.3882 18.0364 15.5285 18.176 15.6279C18.3157 15.7273 18.4827 15.7808 18.6541 15.781V15.781Z" fill="#1E0028"/>
<path d="M23.758 12.9209C23.214 12.9217 22.6838 13.0918 22.2408 13.4074C21.7979 13.7231 21.4641 14.1688 21.2858 14.6826C21.2394 14.787 21.2151 14.8999 21.2145 15.0141C21.2139 15.1284 21.237 15.2415 21.2824 15.3464C21.3277 15.4512 21.3943 15.5455 21.4779 15.6234C21.5615 15.7012 21.6604 15.7609 21.7682 15.7986C21.876 15.8363 21.9905 15.8512 22.1044 15.8425C22.2183 15.8337 22.3292 15.8014 22.43 15.7476C22.5308 15.6939 22.6193 15.6198 22.69 15.5301C22.7608 15.4403 22.8121 15.3369 22.8409 15.2264C22.9085 15.0403 23.0317 14.8796 23.1939 14.766C23.356 14.6524 23.5491 14.5915 23.7471 14.5915C23.945 14.5915 24.1382 14.6524 24.3003 14.766C24.4625 14.8796 24.5857 15.0403 24.6533 15.2264C24.7097 15.3882 24.815 15.5285 24.9546 15.6279C25.0942 15.7273 25.2613 15.7808 25.4327 15.781C25.5375 15.7862 25.6423 15.7702 25.7408 15.7339C25.8434 15.6984 25.938 15.6431 26.0192 15.5711C26.1004 15.499 26.1666 15.4117 26.2141 15.3141C26.2615 15.2165 26.2893 15.1105 26.2958 15.0021C26.3023 14.8938 26.2874 14.7852 26.2519 14.6826C26.0719 14.1655 25.7347 13.7177 25.2875 13.4018C24.8403 13.0859 24.3055 12.9177 23.758 12.9209V12.9209Z" fill="#1E0028"/>
</svg>
