<svg width="169" height="186" viewBox="0 0 169 186" fill="none" xmlns="http://www.w3.org/2000/svg">
<circle cx="80.4537" cy="83.1208" r="72.4529" fill="#FFF3D5" fill-opacity="0.5"/>
<g clip-path="url(#clip0_1169_15342)">
<path d="M161.417 68.3682H125.728V105.425C125.728 109.728 129.193 113.209 133.477 113.209H153.668C157.952 113.209 161.417 109.728 161.417 105.425V68.3682Z" fill="#FFF3D5"/>
<path d="M161.417 68.3681V105.425C161.417 109.728 157.952 113.209 153.668 113.209H133.477C129.193 113.209 125.728 109.728 125.728 105.425V68.3681H161.417ZM161.417 64.2568H125.728C123.463 64.2568 121.635 66.0932 121.635 68.3681V105.425C121.635 111.975 126.956 117.32 133.477 117.32H153.668C160.189 117.32 165.509 111.975 165.509 105.425V68.3681C165.509 66.0932 163.681 64.2568 161.417 64.2568Z" fill="#1E0028"/>
<path d="M129.248 82.6209V105.425C129.248 107.782 131.158 109.673 133.477 109.673H153.668C156.014 109.673 157.897 107.755 157.897 105.425V82.6209L153.804 82.9498C150.53 83.2238 147.228 83.0594 144.009 82.5112C140.271 81.8808 136.451 81.7712 132.685 82.2097L129.248 82.6209Z" fill="white"/>
<path d="M134.295 75.0559H128.457C127.338 75.0559 126.41 74.124 126.41 73.0002C126.41 71.8765 127.338 70.9446 128.457 70.9446H134.295C135.414 70.9446 136.342 71.8765 136.342 73.0002C136.342 74.124 135.441 75.0559 134.295 75.0559Z" fill="#1E0028"/>
<path d="M134.295 83.0319H128.457C127.338 83.0319 126.41 82.1 126.41 80.9763C126.41 79.8525 127.338 78.9207 128.457 78.9207H134.295C135.414 78.9207 136.342 79.8525 136.342 80.9763C136.342 82.1 135.441 83.0319 134.295 83.0319Z" fill="#1E0028"/>
<path d="M134.295 91.0075H128.457C127.338 91.0075 126.41 90.0756 126.41 88.9519C126.41 87.8281 127.338 86.8962 128.457 86.8962H134.295C135.414 86.8962 136.342 87.8281 136.342 88.9519C136.342 90.0756 135.441 91.0075 134.295 91.0075Z" fill="#1E0028"/>
<path d="M134.295 98.9833H128.457C127.338 98.9833 126.41 98.0515 126.41 96.9277C126.41 95.804 127.338 94.8721 128.457 94.8721H134.295C135.414 94.8721 136.342 95.804 136.342 96.9277C136.342 98.0515 135.441 98.9833 134.295 98.9833Z" fill="#1E0028"/>
<path d="M134.295 106.96H128.457C127.338 106.96 126.41 106.028 126.41 104.904C126.41 103.78 127.338 102.848 128.457 102.848H134.295C135.414 102.848 136.342 103.78 136.342 104.904C136.342 106.028 135.441 106.96 134.295 106.96Z" fill="#1E0028"/>
<path d="M161.444 71.6573H125.701C124.309 71.6573 123.218 70.5335 123.218 69.1631V68.0119C123.218 64.6955 125.892 62.0369 129.166 62.0369H157.979C161.28 62.0369 163.927 64.7229 163.927 68.0119V69.1631C163.927 70.5335 162.808 71.6573 161.444 71.6573Z" fill="#C9C5EC"/>
<path d="M157.979 62.0095C161.28 62.0095 163.927 64.6955 163.927 67.9846V69.1357C163.927 70.5336 162.808 71.6299 161.444 71.6299H125.701C124.309 71.6299 123.218 70.5062 123.218 69.1357V67.9846C123.218 64.6681 125.892 62.0095 129.166 62.0095H157.979ZM157.979 57.8982H129.166C123.627 57.8982 119.125 62.4206 119.125 68.012V69.1631C119.125 72.8085 122.072 75.7686 125.701 75.7686H161.417C165.046 75.7686 167.992 72.8085 167.992 69.1631V68.012C168.02 62.4206 163.518 57.8982 157.979 57.8982Z" fill="#1E0028"/>
<path d="M149.247 47.565V45.3723C149.247 42.2203 146.71 39.6987 143.599 39.6987C140.462 39.6987 137.951 42.2477 137.951 45.3723V47.565C137.951 49.4836 136.396 51.0459 134.486 51.0459C131.703 51.0459 129.438 53.3208 129.438 56.1165V57.624H157.815V56.1165C157.815 53.3208 155.55 51.0459 152.767 51.0459C150.803 51.0459 149.247 49.4836 149.247 47.565Z" fill="#FFE9BD"/>
<path d="M143.572 39.6714C146.71 39.6714 149.22 42.2204 149.22 45.3449V47.5376C149.22 49.4562 150.775 51.0185 152.685 51.0185C155.468 51.0185 157.733 53.2934 157.733 56.0891V57.5966H129.357V56.1165C129.357 53.3208 131.621 51.0459 134.404 51.0459C136.314 51.0459 137.87 49.4836 137.87 47.565V45.3723C137.924 42.2204 140.462 39.6714 143.572 39.6714ZM143.572 35.5601C138.197 35.5601 133.831 39.9454 133.831 45.3449V46.9346C129.057 47.2635 125.291 51.2652 125.291 56.1165V57.624V61.7353H129.384H157.76H161.853V57.624V56.1165C161.853 51.2652 158.088 47.2635 153.34 46.962V45.3723C153.34 39.9454 148.947 35.5601 143.572 35.5601Z" fill="#1E0028"/>
</g>
<g clip-path="url(#clip1_1169_15342)">
<path d="M28.5366 17.0334L28.474 33.657L17.5417 33.5939C10.4623 33.5623 4.72994 39.3033 4.69861 46.4321C4.66729 53.561 10.3684 59.3335 17.4477 59.365L38.9991 59.4597C47.676 59.4912 54.7554 52.4254 54.818 43.6878L54.8493 33.7831L54.912 17.1596L28.5366 17.0334Z" fill="#FFE9BD"/>
<path d="M28.5367 17.0336L54.9121 17.1598L54.8494 33.7833L54.8181 43.688C54.7868 52.4256 47.7387 59.4598 39.0931 59.4598C39.0618 59.4598 39.0305 59.4598 39.0305 59.4598L17.4792 59.3652C10.3998 59.3336 4.69871 53.5296 4.73004 46.4323C4.76136 39.335 10.4938 33.594 17.5105 33.594C17.5418 33.594 17.5418 33.594 17.5731 33.594L28.5054 33.6571L28.5367 17.0336ZM23.8694 12.2705L23.838 17.0021L23.8067 28.894L17.5731 28.8625H17.5105C7.92515 28.8625 0.0626686 36.7168 0.031344 46.4007C1.94082e-05 56.1162 7.79985 64.0336 17.4478 64.0967L38.9992 64.1914H39.0931C44.5436 64.1914 49.6495 62.0779 53.5025 58.1981C57.3554 54.3182 59.4855 49.1766 59.5168 43.688L59.5481 33.7833L59.6108 17.1598L59.6421 12.4282L54.9434 12.3967L28.5681 12.3021L23.8694 12.2705Z" fill="#1E0028"/>
<path d="M56.3218 6.87642L27.3465 6.75024C25.8429 6.75024 24.5899 7.98045 24.5899 9.49454L24.5586 14.3523C24.5586 15.8664 25.7803 17.1281 27.2838 17.1281L56.2591 17.2543C57.7627 17.2543 59.0157 16.0241 59.0157 14.51L59.047 9.65226C59.0783 8.13816 57.8567 6.87642 56.3218 6.87642Z" fill="#C9C5EC"/>
<path d="M27.3465 6.75035C27.3778 6.75035 27.3778 6.75035 27.3465 6.75035L56.3218 6.87652C57.8253 6.87652 59.047 8.13827 59.047 9.65236V14.5101C59.047 16.0242 57.8253 17.2544 56.2904 17.2544L27.3152 17.1282C25.8116 17.1282 24.5899 15.8665 24.5899 14.3524L24.6213 9.49464C24.6213 7.98055 25.8429 6.75035 27.3465 6.75035ZM27.3465 2.0188C23.2743 2.0188 19.9226 5.36243 19.9226 9.4631L19.8912 14.3208C19.8912 16.3081 20.643 18.2007 22.0526 19.6202C23.4622 21.0396 25.3104 21.8282 27.3152 21.8282L56.2904 21.9544H56.3218C60.394 21.9544 63.7457 18.6108 63.777 14.4785L63.8083 9.62082C63.8083 7.63357 63.0565 5.74095 61.6469 4.32149C60.2373 2.90202 58.3892 2.11343 56.3844 2.11343L27.3778 2.0188H27.3465Z" fill="#1E0028"/>
<path d="M33.7993 59.4283L38.9992 59.4598C47.6761 59.4914 54.7555 52.4256 54.8181 43.688L54.8495 38.0732C43.5726 38.9249 34.5824 48.0095 33.7993 59.4283Z" fill="#C9C5EC"/>
<path d="M31.6379 15.6771C30.3223 15.6771 29.2886 14.6046 29.2886 13.3113V10.6617C29.2886 9.36838 30.3536 8.2959 31.6379 8.2959C32.9222 8.2959 33.9873 9.36838 33.9873 10.6617V13.3113C33.9873 14.6362 32.9222 15.6771 31.6379 15.6771Z" fill="#1E0028"/>
<path d="M41.8183 15.6771C40.5027 15.6771 39.469 14.6046 39.469 13.3113V10.6617C39.469 9.36838 40.534 8.2959 41.8183 8.2959C43.1026 8.2959 44.1677 9.36838 44.1677 10.6617V13.3113C44.1677 14.6362 43.1026 15.6771 41.8183 15.6771Z" fill="#1E0028"/>
<path d="M51.9989 15.6771C50.6832 15.6771 49.6495 14.6046 49.6495 13.3113V10.6617C49.6495 9.36838 50.7146 8.2959 51.9989 8.2959C53.2832 8.2959 54.3482 9.36838 54.3482 10.6617V13.3113C54.3482 14.6362 53.2832 15.6771 51.9989 15.6771Z" fill="#1E0028"/>
<path d="M49.7121 23.7838L55.1626 39.461L44.8568 43.0885C38.1847 45.4227 34.6763 52.7724 36.9944 59.4912C39.3124 66.21 46.611 69.7429 53.2832 67.4087L73.6442 60.2482C81.8512 57.3462 86.174 48.3247 83.3235 40.0603L80.0657 30.6918L74.6152 15.0146L49.7121 23.7838Z" fill="#FFE9BD"/>
<path d="M74.6152 15.0463L80.0657 30.7235L83.3235 40.092C86.2053 48.3564 81.8512 57.3779 73.6442 60.2799L53.2832 67.4403C51.8736 67.945 50.464 68.1658 49.0543 68.1658C43.7605 68.1658 38.8112 64.8537 36.963 59.5229C34.645 52.8041 38.1534 45.4544 44.8255 43.1202L55.1313 39.4926L49.6808 23.8155L74.6152 15.0463ZM77.4971 9.02148L73.049 10.5671L48.1459 19.3363L43.6978 20.8819L45.2327 25.3611L49.117 36.5591L43.228 38.641C38.8112 40.1866 35.2715 43.3725 33.2354 47.6309C31.1993 51.8578 30.9487 56.6524 32.4836 61.1C34.9269 68.1658 41.5678 72.8974 48.9917 72.8974C50.9651 72.8974 52.9073 72.5504 54.7554 71.9195L75.1164 64.7591C80.285 62.9611 84.4198 59.2074 86.7692 54.2551C89.1185 49.3027 89.4631 43.7195 87.6463 38.5148L84.3885 29.1463L78.938 13.4691L77.4971 9.02148Z" fill="#1E0028"/>
<path d="M72.5479 4.8892L45.2015 14.51C43.7605 15.0147 43.0087 16.5919 43.5099 18.0429L45.1075 22.6167C45.6087 24.0677 47.1749 24.8248 48.6159 24.3201L75.9622 14.6993C77.4032 14.1946 78.155 12.6174 77.6538 11.1664L76.0562 6.59256C75.555 5.14155 73.9888 4.3845 72.5479 4.8892Z" fill="#C9C5EC"/>
<path d="M73.4563 4.73155C74.584 4.73155 75.649 5.45705 76.0562 6.59262L77.6538 11.1665C78.155 12.6175 77.4032 14.1946 75.9623 14.6993L48.6159 24.3202C48.3026 24.4148 48.0207 24.4779 47.7075 24.4779C46.5798 24.4779 45.5148 23.7524 45.1075 22.6168L43.51 18.043C43.0088 16.592 43.7606 15.0148 45.2015 14.5101L72.5479 4.88927C72.8611 4.79464 73.143 4.73155 73.4563 4.73155ZM73.4563 0C72.6105 0 71.7961 0.126175 71.013 0.410067L43.6666 10.0309C39.7823 11.3873 37.7463 15.6772 39.0932 19.5886L40.6908 24.1624C41.7245 27.1591 44.5437 29.1779 47.7075 29.1779C48.5532 29.1779 49.3677 29.0517 50.1508 28.7678L77.4972 19.147C81.3814 17.7906 83.4175 13.5007 82.0706 9.58927L80.473 5.01544C79.4393 2.01879 76.6201 0 73.4563 0Z" fill="#1E0028"/>
<path d="M68.7262 61.9832L73.6441 60.2483C81.8511 57.3463 86.1739 48.3248 83.3234 40.0603L81.4753 34.761C71.1381 39.3979 65.6877 51.006 68.7262 61.9832Z" fill="#C9C5EC"/>
<path d="M51.4037 21.639C50.4326 21.639 49.5242 21.0397 49.1796 20.0618L48.3025 17.5699C47.864 16.3396 48.5218 14.9833 49.7435 14.5417C50.9651 14.1 52.3121 14.7625 52.7506 15.9927L53.6277 18.4846C54.0663 19.7148 53.4085 21.0712 52.1868 21.5128C51.9362 21.5759 51.6543 21.639 51.4037 21.639Z" fill="#1E0028"/>
<path d="M61.0204 18.2008C60.0493 18.2008 59.1409 17.6014 58.7963 16.6236L57.9192 14.1316C57.4807 12.9014 58.1385 11.545 59.3602 11.1034C60.5818 10.6618 61.9288 11.3242 62.3674 12.5544L63.2444 15.0464C63.683 16.2766 63.0252 17.633 61.8035 18.0746C61.5216 18.1692 61.271 18.2008 61.0204 18.2008Z" fill="#1E0028"/>
<path d="M70.6057 14.794C69.6346 14.794 68.7262 14.1947 68.3817 13.2168L67.5046 10.7249C67.066 9.49468 67.7238 8.1383 68.9455 7.69669C70.1672 7.25508 71.5141 7.9175 71.9527 9.1477L72.8297 11.6396C73.2683 12.8699 72.6105 14.2262 71.3888 14.6678C71.1069 14.7309 70.8563 14.794 70.6057 14.794Z" fill="#1E0028"/>
</g>
<g clip-path="url(#clip2_1169_15342)">
<path d="M94.2226 172.287C93.8111 172.287 93.429 172.168 93.0469 171.931L74.8225 160.374C73.7937 159.722 73.4704 158.359 74.1171 157.322C74.7637 156.285 76.1159 155.959 77.1447 156.611L95.369 168.168C96.3978 168.82 96.7211 170.183 96.0745 171.22C95.6629 171.931 94.9575 172.287 94.2226 172.287Z" fill="#1E0028"/>
<path d="M55.1284 172.287C54.3936 172.287 53.6881 171.931 53.2472 171.25C52.6006 170.212 52.8945 168.849 53.9527 168.197L72.177 156.641C73.2058 155.989 74.5579 156.315 75.2046 157.352C75.8513 158.389 75.5573 159.752 74.4992 160.404L56.2748 171.961C55.9221 172.168 55.54 172.287 55.1284 172.287Z" fill="#1E0028"/>
<path d="M95.9275 157.115H53.7763C47.8387 157.115 43.0181 152.255 43.0181 146.269V129.882H106.656V146.269C106.686 152.255 101.865 157.115 95.9275 157.115Z" fill="#FFEDC1"/>
<path d="M106.686 129.852V146.239C106.686 152.225 101.865 157.085 95.9275 157.085H53.7764C47.8388 157.085 43.0181 152.225 43.0181 146.239V129.852H106.686ZM106.686 125.407H43.0181C40.5784 125.407 38.609 127.393 38.609 129.852V146.239C38.609 154.655 45.399 161.53 53.7764 161.53H95.9275C104.275 161.53 111.095 154.685 111.095 146.239V129.852C111.095 127.422 109.125 125.407 106.686 125.407Z" fill="#1E0028"/>
<path d="M78.6143 95.2111L67.5327 98.5893L67.3857 97.9966C67.0036 96.3371 65.0048 95.7149 63.7408 96.8409L55.099 104.634L54.7168 104.16C53.6587 102.827 51.6011 103.093 50.925 104.664L46.3983 115.421L45.8692 115.154C44.3701 114.384 42.6065 115.539 42.6359 117.228L43.018 129.852H74.8518L81.4361 97.8188C81.7888 96.1594 80.2309 94.737 78.6143 95.2111Z" fill="#FFEDC1"/>
<path d="M79.2585 95.1222C80.6107 95.1222 81.7276 96.3964 81.4337 97.8188L74.8494 129.852H43.0156L42.6335 117.228C42.6041 115.895 43.6623 114.917 44.8674 114.917C45.1908 114.917 45.5435 115.006 45.8668 115.154L46.3959 115.421L50.952 104.694C51.3341 103.805 52.1572 103.331 53.0096 103.331C53.6563 103.331 54.3029 103.597 54.7438 104.19L55.126 104.664L63.7678 96.8706C64.2088 96.4853 64.7378 96.3075 65.2375 96.3075C66.2075 96.3075 67.1482 96.9595 67.4127 98.0262L67.5597 98.6189L78.6707 95.2407C78.847 95.1518 79.0528 95.1222 79.2585 95.1222ZM79.2585 90.6772C78.6119 90.6772 77.9652 90.7661 77.3479 90.9736L69.4409 93.3739C68.2945 92.4256 66.7954 91.8626 65.2082 91.8626C63.5915 91.8626 62.0042 92.4552 60.799 93.5517L54.6557 99.093C54.1266 98.9449 53.5681 98.8856 53.0096 98.8856C50.3641 98.8856 47.9538 100.486 46.8956 102.945L43.6329 110.591C42.2808 110.857 41.0462 111.509 40.0762 112.517C38.8416 113.821 38.1656 115.539 38.2244 117.377L38.6065 130C38.6947 132.401 40.6347 134.297 43.0156 134.297H74.8494C76.9364 134.297 78.7294 132.815 79.1703 130.741L85.7546 98.7078C86.1661 96.7224 85.6664 94.7073 84.4025 93.1368C83.1386 91.5662 81.2573 90.6772 79.2585 90.6772Z" fill="#1E0028"/>
<path d="M106.656 129.852H43.0181V138.297H106.656V129.852Z" fill="#C9C5EC"/>
<path d="M106.686 129.852V138.298H43.0181V129.852H106.686ZM106.686 125.407H43.0181C40.5784 125.407 38.609 127.393 38.609 129.852V138.298C38.609 140.757 40.5784 142.743 43.0181 142.743H106.656C109.096 142.743 111.065 140.757 111.065 138.298V129.852C111.095 127.422 109.125 125.407 106.686 125.407Z" fill="#1E0028"/>
<path d="M98.1445 180.256C100.674 178.476 101.294 174.967 99.529 172.417C97.764 169.866 94.2827 169.242 91.7531 171.021C89.2236 172.8 88.6037 176.31 90.3686 178.86C92.1336 181.41 95.6149 182.035 98.1445 180.256Z" fill="#FFE9BD"/>
<path d="M94.9575 170.005C95.2808 170.005 95.6042 170.035 95.9569 170.094C98.9845 170.627 101.013 173.561 100.484 176.613C100.013 179.339 97.6618 181.266 94.9869 181.266C94.6636 181.266 94.3402 181.236 93.9875 181.177C90.9599 180.643 88.9317 177.71 89.4608 174.657C89.9311 171.931 92.2827 170.005 94.9575 170.005ZM94.9575 165.56C90.1075 165.56 85.9629 169.057 85.1399 173.857C84.6696 176.495 85.2575 179.191 86.786 181.384C88.3145 183.577 90.6072 185.059 93.2233 185.533C93.8111 185.651 94.399 185.681 94.9869 185.681C99.8369 185.681 103.981 182.184 104.805 177.384C105.275 174.746 104.687 172.05 103.158 169.857C101.63 167.664 99.3372 166.182 96.7212 165.708C96.1333 165.619 95.5454 165.56 94.9575 165.56Z" fill="#1E0028"/>
<path d="M59.7857 176.054C59.9667 172.95 57.6172 170.286 54.538 170.103C51.4588 169.921 48.8159 172.289 48.6349 175.393C48.4539 178.498 50.8033 181.162 53.8825 181.345C56.9617 181.527 59.6046 179.159 59.7857 176.054Z" fill="#FFE9BD"/>
<path d="M54.2172 170.094C56.8627 170.094 59.2142 171.99 59.7139 174.717C60.2724 177.769 58.2736 180.703 55.246 181.266C54.8933 181.325 54.57 181.354 54.2172 181.354C51.5718 181.354 49.2202 179.458 48.7205 176.732C48.1621 173.679 50.1609 170.746 53.1884 170.183C53.5412 170.124 53.8645 170.094 54.2172 170.094ZM54.2172 165.649C53.6 165.649 52.9827 165.708 52.3948 165.827C49.7787 166.301 47.486 167.812 45.9869 170.035C44.4878 172.257 43.8999 174.924 44.3996 177.561C45.2814 182.332 49.3966 185.799 54.2172 185.799C54.8345 185.799 55.4224 185.74 56.0397 185.622C61.4482 184.614 65.0637 179.339 64.0643 173.887C63.153 169.116 59.0085 165.649 54.2172 165.649Z" fill="#1E0028"/>
<path d="M108.92 133.912C107.714 133.912 106.715 132.905 106.715 131.69V116.577C106.715 115.362 107.714 114.354 108.92 114.354C110.125 114.354 111.124 115.362 111.124 116.577V131.69C111.124 132.934 110.125 133.912 108.92 133.912Z" fill="#1E0028"/>
</g>
<path d="M150.266 144.799H149.119V143.648C149.119 142.825 148.463 142.25 147.725 142.25C146.906 142.25 146.332 142.908 146.332 143.648V144.799H145.185C144.365 144.799 143.792 145.456 143.792 146.196C143.792 147.018 144.447 147.594 145.185 147.594H146.332V148.745C146.332 149.567 146.988 150.142 147.725 150.142C148.545 150.142 149.119 149.485 149.119 148.745V147.594H150.266C151.085 147.594 151.659 146.936 151.659 146.196C151.741 145.456 151.085 144.799 150.266 144.799Z" fill="#1E0028"/>
<path d="M11.699 89.3718H10.5517V88.2209C10.5517 87.3987 9.89603 86.8232 9.15844 86.8232C8.3389 86.8232 7.76521 87.4809 7.76521 88.2209V89.3718H6.61785C5.7983 89.3718 5.22461 90.0295 5.22461 90.7694C5.22461 91.5915 5.88026 92.167 6.61785 92.167H7.76521V93.318C7.76521 94.1401 8.42085 94.7156 9.15844 94.7156C9.97799 94.7156 10.5517 94.0579 10.5517 93.318V92.167H11.699C12.5186 92.167 13.0923 91.5093 13.0923 90.7694C13.1742 90.0295 12.5186 89.3718 11.699 89.3718Z" fill="#1E0028"/>
<path d="M109.092 14.1492H107.944V12.9982C107.944 12.1761 107.289 11.6006 106.551 11.6006C105.732 11.6006 105.158 12.2583 105.158 12.9982V14.1492H104.011C103.191 14.1492 102.617 14.8069 102.617 15.5468C102.617 16.3689 103.273 16.9444 104.011 16.9444H105.158V18.0953C105.158 18.9175 105.814 19.4929 106.551 19.4929C107.371 19.4929 107.944 18.8353 107.944 18.0953V16.9444H109.092C109.911 16.9444 110.485 16.2867 110.485 15.5468C110.567 14.8069 109.911 14.1492 109.092 14.1492Z" fill="#1E0028"/>
<defs>
<clipPath id="clip0_1169_15342">
<rect width="48.8946" height="81.7873" fill="white" transform="translate(119.125 35.5601)"/>
</clipPath>
<clipPath id="clip1_1169_15342">
<rect width="88.8992" height="72.8974" fill="white"/>
</clipPath>
<clipPath id="clip2_1169_15342">
<rect width="72.8974" height="95.1222" fill="white" transform="translate(38.2268 90.6772)"/>
</clipPath>
</defs>
</svg>
