<svg width="14" height="15" viewBox="0 0 14 15" fill="none" xmlns="http://www.w3.org/2000/svg">
<path d="M13.4734 13.0267L11.0001 10.5733C11.9601 9.37627 12.4251 7.85686 12.2993 6.32753C12.1735 4.7982 11.4665 3.37519 10.3237 2.35109C9.18097 1.327 7.68926 0.779671 6.15534 0.821644C4.62142 0.863618 3.16187 1.49171 2.07682 2.57676C0.991766 3.66181 0.363679 5.12136 0.321705 6.65528C0.279732 8.1892 0.827062 9.68091 1.85115 10.8237C2.87525 11.9664 4.29826 12.6734 5.82759 12.7992C7.35692 12.925 8.87633 12.4601 10.0734 11.5L12.5267 13.9533C12.5887 14.0158 12.6624 14.0654 12.7437 14.0993C12.8249 14.1331 12.9121 14.1505 13.0001 14.1505C13.0881 14.1505 13.1752 14.1331 13.2564 14.0993C13.3377 14.0654 13.4114 14.0158 13.4734 13.9533C13.5936 13.829 13.6607 13.6629 13.6607 13.49C13.6607 13.3171 13.5936 13.151 13.4734 13.0267ZM6.33339 11.5C5.41041 11.5 4.50816 11.2263 3.74073 10.7135C2.9733 10.2007 2.37516 9.47191 2.02195 8.61919C1.66874 7.76646 1.57633 6.82815 1.75639 5.92291C1.93646 5.01766 2.38091 4.18614 3.03356 3.5335C3.6862 2.88085 4.51773 2.4364 5.42297 2.25633C6.32821 2.07627 7.26653 2.16868 8.11925 2.52189C8.97197 2.8751 9.7008 3.47324 10.2136 4.24067C10.7264 5.0081 11.0001 5.91035 11.0001 6.83333C11.0001 8.07101 10.5084 9.25799 9.63322 10.1332C8.75805 11.0083 7.57107 11.5 6.33339 11.5Z" fill="#1E0028"/>
</svg>
