<svg width="34" height="34" viewBox="0 0 34 34" fill="none" xmlns="http://www.w3.org/2000/svg">
<path d="M30.8125 17C30.812 19.1398 30.3145 21.2502 29.3592 23.1649C28.4039 25.0796 27.0169 26.7462 25.3075 28.0334C23.5982 29.3206 21.6132 30.1931 19.5091 30.5822C17.4049 30.9713 15.2392 30.8663 13.1826 30.2755L14.4863 25.0606C15.5631 25.7148 16.8028 26.0513 18.0625 26.0312C22.7495 26.0312 26.5625 21.9798 26.5625 17C26.5616 15.5899 26.2489 14.1975 25.6467 12.9224C25.0445 11.6474 24.1678 10.5213 23.0794 9.62483C21.991 8.72837 20.7177 8.08372 19.3509 7.73706C17.9841 7.3904 16.5575 7.35031 15.1734 7.61967C13.7893 7.88903 12.4818 8.46116 11.3448 9.29509C10.2077 10.129 9.26915 11.2041 8.59632 12.4433C7.92349 13.6825 7.53306 15.0552 7.45297 16.463C7.37289 17.8708 7.60516 19.2789 8.13312 20.5865C8.23886 20.8477 8.44403 21.0562 8.7035 21.1661C8.96298 21.276 9.25549 21.2784 9.51669 21.1726C9.7779 21.0669 9.9864 20.8617 10.0963 20.6023C10.2063 20.3428 10.2086 20.0503 10.1029 19.7891C9.69163 18.7719 9.5105 17.6763 9.57246 16.5809C9.63442 15.4855 9.93795 14.4173 10.4613 13.453C10.9846 12.4887 11.7148 11.652 12.5995 11.0031C13.4841 10.3542 14.5014 9.90897 15.5784 9.69942C16.6554 9.48988 17.7654 9.52117 18.8289 9.79107C19.8923 10.061 20.8829 10.5628 21.7296 11.2605C22.5763 11.9583 23.2582 12.8347 23.7264 13.827C24.1945 14.8193 24.4374 15.9028 24.4375 17C24.4375 20.8081 21.5777 23.9062 18.0625 23.9062C16.6692 23.9062 15.701 23.4201 15.041 22.8421L16.9683 15.1327C17.0367 14.8593 16.9936 14.57 16.8486 14.3284C16.7037 14.0867 16.4686 13.9126 16.1953 13.8442C15.9219 13.7759 15.6325 13.8189 15.3909 13.9639C15.1493 14.1089 14.9751 14.3439 14.9068 14.6173L11.18 29.5245C8.93426 28.4808 7.01045 26.8526 5.60997 24.8103C4.20949 22.768 3.38386 20.3867 3.21953 17.9158C3.05521 15.4449 3.55822 12.9752 4.67591 10.7654C5.79359 8.55563 7.48484 6.68699 9.57256 5.35514C11.6603 4.02329 14.0677 3.27724 16.5427 3.1951C19.0177 3.11296 21.4693 3.69775 23.6407 4.88824C25.8121 6.07874 27.6235 7.83114 28.8853 9.96196C30.147 12.0928 30.8127 14.5236 30.8125 17Z" fill="#ffc944"/>
</svg>
