<svg width="34" height="34" viewBox="0 0 34 34" fill="none" xmlns="http://www.w3.org/2000/svg">
<path d="M24.565 7.73492C24.2288 7.73492 23.9001 7.83462 23.6205 8.02142C23.341 8.20822 23.1231 8.47372 22.9944 8.78436C22.8657 9.09499 22.8321 9.4368 22.8977 9.76657C22.9633 10.0963 23.1252 10.3993 23.3629 10.637C23.6007 10.8748 23.9036 11.0367 24.2334 11.1023C24.5631 11.1678 24.9049 11.1342 25.2156 11.0055C25.5262 10.8768 25.7917 10.659 25.9785 10.3794C26.1653 10.0998 26.265 9.77115 26.265 9.43492C26.265 8.98405 26.0859 8.55165 25.7671 8.23284C25.4483 7.91403 25.0159 7.73492 24.565 7.73492ZM31.0817 11.1633C31.0541 9.98784 30.834 8.82491 30.43 7.72075C30.0698 6.77602 29.5092 5.92056 28.7867 5.21325C28.0852 4.48711 27.2277 3.93 26.2792 3.58409C25.1779 3.16781 24.0137 2.94263 22.8367 2.91825C21.335 2.83325 20.8533 2.83325 17 2.83325C13.1467 2.83325 12.665 2.83325 11.1633 2.91825C9.98631 2.94263 8.82208 3.16781 7.72084 3.58409C6.77405 3.9335 5.91733 4.49013 5.21334 5.21325C4.4872 5.91475 3.93009 6.77221 3.58418 7.72075C3.1679 8.82199 2.94272 9.98622 2.91834 11.1633C2.83334 12.6649 2.83334 13.1466 2.83334 16.9999C2.83334 20.8533 2.83334 21.3349 2.91834 22.8366C2.94272 24.0136 3.1679 25.1778 3.58418 26.2791C3.93009 27.2276 4.4872 28.0851 5.21334 28.7866C5.91733 29.5097 6.77405 30.0663 7.72084 30.4158C8.82208 30.832 9.98631 31.0572 11.1633 31.0816C12.665 31.1666 13.1467 31.1666 17 31.1666C20.8533 31.1666 21.335 31.1666 22.8367 31.0816C24.0137 31.0572 25.1779 30.832 26.2792 30.4158C27.2277 30.0698 28.0852 29.5127 28.7867 28.7866C29.5124 28.0819 30.0735 27.2257 30.43 26.2791C30.834 25.1749 31.0541 24.012 31.0817 22.8366C31.0817 21.3349 31.1667 20.8533 31.1667 16.9999C31.1667 13.1466 31.1667 12.6649 31.0817 11.1633ZM28.5317 22.6666C28.5214 23.5658 28.3585 24.4568 28.05 25.3016C27.8238 25.9181 27.4605 26.4752 26.9875 26.9308C26.528 27.399 25.9721 27.7615 25.3583 27.9933C24.5136 28.3017 23.6226 28.4646 22.7233 28.4749C21.3067 28.5458 20.7825 28.5599 17.0567 28.5599C13.3308 28.5599 12.8067 28.5599 11.39 28.4749C10.4563 28.4924 9.52652 28.3486 8.64168 28.0499C8.05487 27.8064 7.52443 27.4447 7.08334 26.9874C6.61314 26.5323 6.25437 25.9748 6.03501 25.3583C5.68914 24.5014 5.49731 23.5902 5.46834 22.6666C5.46834 21.2499 5.38334 20.7258 5.38334 16.9999C5.38334 13.2741 5.38334 12.7499 5.46834 11.3333C5.47469 10.4139 5.64252 9.50284 5.96418 8.64159C6.21358 8.04363 6.59639 7.5106 7.08334 7.08325C7.51375 6.59616 8.04567 6.2093 8.64168 5.94992C9.50521 5.63831 10.4153 5.47545 11.3333 5.46825C12.75 5.46825 13.2742 5.38325 17 5.38325C20.7258 5.38325 21.25 5.38325 22.6667 5.46825C23.5659 5.47857 24.4569 5.64143 25.3017 5.94992C25.9455 6.18884 26.5233 6.57729 26.9875 7.08325C27.4518 7.51842 27.8145 8.05046 28.05 8.64159C28.3649 9.50424 28.5278 10.4149 28.5317 11.3333C28.6025 12.7499 28.6167 13.2741 28.6167 16.9999C28.6167 20.7258 28.6025 21.2499 28.5317 22.6666ZM17 9.73242C15.5632 9.73522 14.1595 10.1638 12.9663 10.9641C11.773 11.7644 10.8437 12.9004 10.2958 14.2286C9.74794 15.5568 9.60604 17.0176 9.88805 18.4264C10.1701 19.8352 10.8633 21.1288 11.8803 22.1438C12.8972 23.1588 14.1922 23.8495 15.6016 24.1288C17.0109 24.4081 18.4715 24.2633 19.7986 23.7128C21.1257 23.1624 22.2599 22.2309 23.0579 21.0361C23.8558 19.8412 24.2817 18.4367 24.2817 16.9999C24.2836 16.0438 24.0964 15.0968 23.7309 14.2133C23.3655 13.3298 22.829 12.5272 22.1522 11.8518C21.4755 11.1764 20.6719 10.6415 19.7877 10.2777C18.9035 9.91401 17.9561 9.72868 17 9.73242ZM17 21.7174C16.067 21.7174 15.1549 21.4407 14.3791 20.9224C13.6033 20.404 12.9987 19.6672 12.6416 18.8052C12.2846 17.9432 12.1911 16.9947 12.3732 16.0796C12.5552 15.1645 13.0045 14.3239 13.6642 13.6641C14.324 13.0044 15.1646 12.5551 16.0797 12.3731C16.9948 12.191 17.9433 12.2845 18.8053 12.6415C19.6673 12.9986 20.4041 13.6032 20.9225 14.379C21.4408 15.1548 21.7175 16.0669 21.7175 16.9999C21.7175 17.6194 21.5955 18.2329 21.3584 18.8052C21.1213 19.3776 20.7738 19.8976 20.3358 20.3357C19.8977 20.7738 19.3777 21.1212 18.8053 21.3583C18.233 21.5954 17.6195 21.7174 17 21.7174Z" fill="#ffc944"/>
</svg>
